<?xml version="1.0" encoding="UTF-8" standalone="no"?>
<!-- Created with Inkscape (http://www.inkscape.org/) -->

<svg
   xmlns:dc="http://purl.org/dc/elements/1.1/"
   xmlns:cc="http://creativecommons.org/ns#"
   xmlns:rdf="http://www.w3.org/1999/02/22-rdf-syntax-ns#"
   xmlns:svg="http://www.w3.org/2000/svg"
   xmlns="http://www.w3.org/2000/svg"
   xmlns:sodipodi="http://sodipodi.sourceforge.net/DTD/sodipodi-0.dtd"
   xmlns:inkscape="http://www.inkscape.org/namespaces/inkscape"
   width="100"
   height="50"
   viewBox="0 0 312.5 156.25"
   version="1.1"
   id="svg8"
   inkscape:version="0.92.5 (2060ec1f9f, 2020-04-08)"
   sodipodi:docname="fg-rect-hor.svg"
   inkscape:export-filename="/home/manid/Desktop/DEV/projects/pwa-icons-generator/files/bg-square.png"
   inkscape:export-xdpi="96"
   inkscape:export-ydpi="96">
  <defs
     id="defs2" />
  <sodipodi:namedview
     id="base"
     pagecolor="#ffffff"
     bordercolor="#666666"
     borderopacity="1.0"
     inkscape:pageopacity="0.0"
     inkscape:pageshadow="2"
     inkscape:zoom="4"
     inkscape:cx="-13.190194"
     inkscape:cy="37.440092"
     inkscape:document-units="mm"
     inkscape:current-layer="g926"
     showgrid="false"
     units="px"
     inkscape:snap-bbox="true"
     inkscape:bbox-nodes="true"
     inkscape:bbox-paths="true"
     inkscape:snap-bbox-edge-midpoints="true"
     inkscape:snap-bbox-midpoints="true"
     inkscape:window-width="1848"
     inkscape:window-height="1016"
     inkscape:window-x="72"
     inkscape:window-y="27"
     inkscape:window-maximized="1"
     viewbox-width="100"
     viewbox-height="100"
     showguides="false" />
  <metadata
     id="metadata5">
    <rdf:RDF>
      <cc:Work
         rdf:about="">
        <dc:format>image/svg+xml</dc:format>
        <dc:type
           rdf:resource="http://purl.org/dc/dcmitype/StillImage" />
        <dc:title />
      </cc:Work>
    </rdf:RDF>
  </metadata>
  <g
     inkscape:label="Layer 1"
     inkscape:groupmode="layer"
     id="layer1"
     transform="translate(0,-232.28332)">
    <g
       id="g926"
       transform="rotate(90,78.12501,310.40832)"
       inkscape:export-xdpi="96"
       inkscape:export-ydpi="96">
      <rect
         inkscape:export-ydpi="96"
         inkscape:export-xdpi="96"
         y="81.677132"
         x="5.6438103"
         height="301.2124"
         width="144.9624"
         id="rect829"
         style="opacity:1;fill:#999999;fill-opacity:1;fill-rule:nonzero;stroke:#000000;stroke-width:11.2875948;stroke-linecap:butt;stroke-linejoin:miter;stroke-miterlimit:4;stroke-dasharray:none;stroke-opacity:1;paint-order:stroke markers fill" />
      <g
         aria-label="LOGO"
         transform="rotate(-90)"
         style="font-style:normal;font-variant:normal;font-weight:normal;font-stretch:normal;font-size:91.32640076px;line-height:1.25;font-family:sans-serif;-inkscape-font-specification:'sans-serif, Normal';font-variant-ligatures:normal;font-variant-caps:normal;font-variant-numeric:normal;font-feature-settings:normal;text-align:start;letter-spacing:0px;word-spacing:0px;writing-mode:lr-tb;text-anchor:start;fill:#000000;fill-opacity:1;stroke:none;stroke-width:5.70790005"
         id="text949">
        <path
           d="M -349.68322,52.827601 V 103.3311 h 46.21116 V 93.011217 h -34.79536 V 52.827601 Z"
           style="font-style:normal;font-variant:normal;font-weight:normal;font-stretch:normal;font-family:RoadRadio;-inkscape-font-specification:RoadRadio;stroke-width:5.70790005"
           id="path819" />
        <path
           d="m -287.58147,78.125014 c 0,-10.41121 7.39744,-16.712731 16.89539,-16.712731 9.49794,0 16.89538,6.301521 16.89538,16.712731 0,10.41121 -7.39744,16.712731 -16.89538,16.712731 -9.49795,0 -16.89539,-6.301521 -16.89539,-16.712731 z m 45.20657,0 c 0,-15.890794 -12.96835,-26.484656 -28.31118,-26.484656 -15.34284,0 -28.31119,10.593862 -28.31119,26.484656 0,15.890794 12.96835,26.484656 28.31119,26.484656 15.34283,0 28.31118,-10.593862 28.31118,-26.484656 z"
           style="font-style:normal;font-variant:normal;font-weight:normal;font-stretch:normal;font-family:RoadRadio;-inkscape-font-specification:RoadRadio;stroke-width:5.70790005"
           id="path821" />
        <path
           d="m -204.2006,74.015326 v 9.406619 l 12.87703,0.456632 v 5.753563 c -4.10969,3.196424 -8.31071,4.56632 -15.52549,4.56632 -10.13723,0 -16.71273,-6.118868 -16.71273,-16.073446 0,-9.954578 6.5755,-16.073447 16.71273,-16.073447 8.3107,0 12.51172,2.28316 16.53008,7.488765 l 9.04131,-5.114278 c -5.75356,-8.584682 -13.69896,-12.785696 -25.38874,-12.785696 -15.89079,0 -28.21986,10.13723 -28.21986,26.484656 0,16.347426 12.32907,26.484656 28.21986,26.484656 7.58009,0 12.7857,-1.82653 17.626,-5.205605 l 1.55255,3.927035 h 7.12346 V 74.015326 Z"
           style="font-style:normal;font-variant:normal;font-weight:normal;font-stretch:normal;font-family:RoadRadio;-inkscape-font-specification:RoadRadio;stroke-width:5.70790005"
           id="path823" />
        <path
           d="m -160.09,78.125014 c 0,-10.41121 7.39744,-16.712731 16.89539,-16.712731 9.49794,0 16.89538,6.301521 16.89538,16.712731 0,10.41121 -7.39744,16.712731 -16.89538,16.712731 -9.49795,0 -16.89539,-6.301521 -16.89539,-16.712731 z m 45.20657,0 c 0,-15.890794 -12.96835,-26.484656 -28.31118,-26.484656 -15.34284,0 -28.31119,10.593862 -28.31119,26.484656 0,15.890794 12.96835,26.484656 28.31119,26.484656 15.34283,0 28.31118,-10.593862 28.31118,-26.484656 z"
           style="font-style:normal;font-variant:normal;font-weight:normal;font-stretch:normal;font-family:RoadRadio;-inkscape-font-specification:RoadRadio;stroke-width:5.70790005"
           id="path825" />
      </g>
    </g>
  </g>
</svg>
