<?xml version="1.0" encoding="UTF-8" standalone="no"?>
<!-- Created with Inkscape (http://www.inkscape.org/) -->

<svg
   xmlns:dc="http://purl.org/dc/elements/1.1/"
   xmlns:cc="http://creativecommons.org/ns#"
   xmlns:rdf="http://www.w3.org/1999/02/22-rdf-syntax-ns#"
   xmlns:svg="http://www.w3.org/2000/svg"
   xmlns="http://www.w3.org/2000/svg"
   xmlns:sodipodi="http://sodipodi.sourceforge.net/DTD/sodipodi-0.dtd"
   xmlns:inkscape="http://www.inkscape.org/namespaces/inkscape"
   width="50"
   height="100"
   viewBox="0 0 156.25 312.5"
   version="1.1"
   id="svg8"
   inkscape:version="0.92.5 (2060ec1f9f, 2020-04-08)"
   sodipodi:docname="fg-rect-vert.svg"
   inkscape:export-filename="/home/manid/Desktop/DEV/projects/pwa-icons-generator/files/fg-square.png"
   inkscape:export-xdpi="96"
   inkscape:export-ydpi="96">
  <defs
     id="defs2" />
  <sodipodi:namedview
     id="base"
     pagecolor="#ffffff"
     bordercolor="#666666"
     borderopacity="1.0"
     inkscape:pageopacity="0.0"
     inkscape:pageshadow="2"
     inkscape:zoom="2.8284271"
     inkscape:cx="-15.910689"
     inkscape:cy="-8.669135"
     inkscape:document-units="mm"
     inkscape:current-layer="g926"
     showgrid="false"
     units="px"
     inkscape:snap-bbox="true"
     inkscape:bbox-nodes="true"
     inkscape:bbox-paths="true"
     inkscape:snap-bbox-edge-midpoints="true"
     inkscape:snap-bbox-midpoints="true"
     inkscape:window-width="1848"
     inkscape:window-height="1016"
     inkscape:window-x="72"
     inkscape:window-y="27"
     inkscape:window-maximized="1"
     viewbox-width="100"
     viewbox-height="100"
     showguides="true" />
  <metadata
     id="metadata5">
    <rdf:RDF>
      <cc:Work
         rdf:about="">
        <dc:format>image/svg+xml</dc:format>
        <dc:type
           rdf:resource="http://purl.org/dc/dcmitype/StillImage" />
        <dc:title></dc:title>
      </cc:Work>
    </rdf:RDF>
  </metadata>
  <g
     inkscape:label="Layer 1"
     inkscape:groupmode="layer"
     id="layer1"
     transform="translate(0,-76.03332)">
    <g
       id="g926"
       transform="rotate(90,78.12501,310.40832)"
       inkscape:export-xdpi="96"
       inkscape:export-ydpi="96">
      <rect
         inkscape:export-ydpi="96"
         inkscape:export-xdpi="96"
         y="237.92712"
         x="-150.60619"
         height="144.9624"
         width="301.2124"
         id="rect829"
         style="opacity:1;fill:#999999;fill-opacity:1;fill-rule:nonzero;stroke:#000000;stroke-width:11.29133859;stroke-linecap:butt;stroke-linejoin:miter;stroke-miterlimit:4;stroke-dasharray:none;stroke-opacity:1;paint-order:stroke markers fill" />
      <g
         aria-label="LOGO"
         transform="rotate(-90,3.4962511,3.4962511)"
         style="font-style:normal;font-variant:normal;font-weight:normal;font-stretch:normal;font-size:91.32640076px;line-height:1.25;font-family:sans-serif;-inkscape-font-specification:'sans-serif, Normal';font-variant-ligatures:normal;font-variant-caps:normal;font-variant-numeric:normal;font-feature-settings:normal;text-align:start;letter-spacing:0px;word-spacing:0px;writing-mode:lr-tb;text-anchor:start;fill:#000000;fill-opacity:1;stroke:none;stroke-width:11.29133859;stroke-miterlimit:4;stroke-dasharray:none"
         id="text949"
         inkscape:export-xdpi="96"
         inkscape:export-ydpi="96">
        <g
           id="g1021"
           transform="matrix(1.153089,0,0,1.153089,-35.572476,-9.5326243e-6)"
           style="stroke-width:9.79225246;stroke-miterlimit:4;stroke-dasharray:none">
          <path
             inkscape:connector-curvature="0"
             id="path1008"
             style="font-style:normal;font-variant:normal;font-weight:normal;font-stretch:normal;font-family:RoadRadio;-inkscape-font-specification:RoadRadio;stroke-width:9.79225246;stroke-miterlimit:4;stroke-dasharray:none"
             d="m -283.88457,-11.119051 v 22.198004 h 20.31138 V 6.5430138 h -15.29375 V -11.119051 Z" />
          <path
             inkscape:connector-curvature="0"
             id="path1010"
             style="font-style:normal;font-variant:normal;font-weight:normal;font-stretch:normal;font-family:RoadRadio;-inkscape-font-specification:RoadRadio;stroke-width:9.79225246;stroke-miterlimit:4;stroke-dasharray:none"
             d="m -256.58874,2.1493132e-5 c 0,-4.576080393132 3.25143,-7.345813393132 7.4261,-7.345813393132 4.17467,0 7.42609,2.769733 7.42609,7.345813393132 0,4.576080406868 -3.25142,7.345813406868 -7.42609,7.345813406868 -4.17467,0 -7.4261,-2.769733 -7.4261,-7.345813406868 z m 19.86982,0 C -236.71892,-6.9845222 -242.41895,-11.640885 -249.16264,-11.640885 c -6.7437,0 -12.44373,4.6563628 -12.44373,11.640906493132 0,6.984543706868 5.70003,11.640906506868 12.44373,11.640906506868 6.74369,0 12.44372,-4.6563628 12.44372,-11.640906506868 z" />
          <path
             inkscape:connector-curvature="0"
             id="path1012"
             style="font-style:normal;font-variant:normal;font-weight:normal;font-stretch:normal;font-family:RoadRadio;-inkscape-font-specification:RoadRadio;stroke-width:9.79225246;stroke-miterlimit:4;stroke-dasharray:none"
             d="m -219.94001,-1.806326 v 4.1345288 l 5.65989,0.2007052 v 2.5288866 c -1.80635,1.404937 -3.65284,2.0070528 -6.82398,2.0070528 -4.45566,0 -7.34581,-2.6894507 -7.34581,-7.064825906868 0,-4.375375193132 2.89015,-7.064825893132 7.34581,-7.064825893132 3.65283,0 5.49932,1.0035264 7.26553,3.2915666 l 3.97396,-2.2478994 c -2.52888,-3.773259 -6.02115,-5.6197478 -11.15921,-5.6197478 -6.98454,0 -12.40359,4.4556575 -12.40359,11.640906493132 0,7.185249006868 5.41905,11.640906506868 12.40359,11.640906506868 3.33171,0 5.61975,-0.802821 7.74723,-2.2880403 l 0.68239,1.7260653 h 3.13101 V -1.806326 Z" />
          <path
             inkscape:connector-curvature="0"
             id="path1014"
             style="font-style:normal;font-variant:normal;font-weight:normal;font-stretch:normal;font-family:RoadRadio;-inkscape-font-specification:RoadRadio;stroke-width:9.79225246;stroke-miterlimit:4;stroke-dasharray:none"
             d="m -200.55191,2.1493132e-5 c 0,-4.576080393132 3.25143,-7.345813393132 7.4261,-7.345813393132 4.17467,0 7.4261,2.769733 7.4261,7.345813393132 0,4.576080406868 -3.25143,7.345813406868 -7.4261,7.345813406868 -4.17467,0 -7.4261,-2.769733 -7.4261,-7.345813406868 z m 19.86983,0 C -180.68208,-6.9845222 -186.38211,-11.640885 -193.12581,-11.640885 c -6.7437,0 -12.44373,4.6563628 -12.44373,11.640906493132 0,6.984543706868 5.70003,11.640906506868 12.44373,11.640906506868 6.7437,0 12.44373,-4.6563628 12.44373,-11.640906506868 z" />
        </g>
      </g>
    </g>
  </g>
</svg>
